<svg xmlns="http://www.w3.org/2000/svg" viewBox="0 0 420 492" role="img" aria-label="Atrium Rehab — Fisioterapia Cardiopulmonar e Longevidade">
  <!-- Símbolo (átrio): paths vetoriais da marca, em bronze -->
  <g fill="#cd9758" transform="translate(139 56) scale(0.222)">
    <path d="M86.51,275.09l1.2-25.86c1.99-2.85,27.67,1.62,32.28,2.79,30.91,7.84,51.09,27.87,78.16,41.71,3.34,1.71,15.11,7.58,18.02,7.84,5.33.48,20.45-15.75,26.84-17.34-25.89-18.59-41.85-47.3-63.66-69.93-19.57-20.29-45.06-31.49-73.67-26.63-1.86-2.11,9.25-23.46,12.08-25.79,2.29-1.88,16.05.39,19.72,1.06,51.02,9.34,68,48.59,99.69,81.77,6.17,6.46,21.25,20.42,29.4,23.06,5.09,1.65,12.65-4.21,17.96-5.3.2-18.94.17-38.05-1.55-56.92-.09-.98-.33-2.94-1.03-3.54-49.77-16.53-99.5-45.29-124.73-92.93,3.85-1.38,17.87-16.22,20.75-14.54,20.16,40.67,61.55,65.66,103.34,79.8-.38-29.42-1.69-60.32-13.43-87.7-4.92-11.49-12.1-21.85-19.02-32.16l26.47-6.5c12.81,21.16,22.64,43.26,26.56,67.92,6.5,40.9,5.96,88.87,6.87,130.48,1.48,67.86,1.66,179.56-28.13,240.68-1.73,3.55-10.89,20.32-13.99,20.92-6.68-2.76-16.32-3.92-22.55-7.13-.75-.38-1.37.19-1.09-1.45,29.96-35.79,33.14-84.86,38.31-129.43-1.44-.38-1.66.6-2.5,1.24-14.23,10.89-26.55,28.26-39.94,40.81-21.32,19.98-45.9,37.46-75.99,40.24-6.99-6.03-14.72-13.21-20.08-20.77-.87-1.23-2.25-2.49-2.16-4.08h18.73c39.71,0,76.51-52.12,102.79-76.18,6.07-5.56,12.51-11,20.71-13l1.77-48.16c-32.62,11.65-56.82,38.52-84.97,57.78-19.02,13.01-41.42,24.72-64.54,27.86-9.69,1.31-18.39.67-28.07.14l-10.53-30c23.34,10.04,49,4.51,70.47-7.36,7.43-4.11,20.14-12.19,26.69-17.38.66-.53,1.53.03,1.05-1.89-22.11-7.56-40.08-25.04-61.05-35.11-6.04-2.9-22.25-9.02-28.44-9.02h-18.73Z"/>
    <path d="M557.49,275.09l-1.2-25.86c-1.99-2.85-27.67,1.62-32.28,2.79-30.91,7.84-51.09,27.87-78.16,41.71-3.34,1.71-15.11,7.58-18.02,7.84-5.33.48-20.45-15.75-26.84-17.34,25.89-18.59,41.85-47.3,63.66-69.93,19.57-20.29,45.06-31.49,73.67-26.63,1.86-2.11-9.25-23.46-12.08-25.79-2.29-1.88-16.05.39-19.72,1.06-51.02,9.34-68,48.59-99.69,81.77-6.17,6.46-21.25,20.42-29.4,23.06-5.09,1.65-12.65-4.21-17.96-5.3-.2-18.94-.17-38.05,1.55-56.92.09-.98.33-2.94,1.03-3.54,49.77-16.53,99.5-45.29,124.73-92.93-3.85-1.38-17.87-16.22-20.75-14.54-20.16,40.67-61.55,65.66-103.34,79.8.38-29.42,1.69-60.32,13.43-87.7,4.92-11.49,12.1-21.85,19.02-32.16l-26.47-6.5c-12.81,21.16-22.64,43.26-26.56,67.92-6.5,40.9-5.96,88.87-6.87,130.48-1.48,67.86-1.66,179.56,28.13,240.68,1.73,3.55,10.89,20.32,13.99,20.92,6.68-2.76,16.32-3.92,22.55-7.13.75-.38,1.37.19,1.09-1.45-29.96-35.79-33.14-84.86-38.31-129.43,1.44-.38,1.66.6,2.5,1.24,14.23,10.89,26.55,28.26,39.94,40.81,21.32,19.98,45.9,37.46,75.99,40.24,6.99-6.03,14.72-13.21,20.08-20.77.87-1.23,2.25-2.49,2.16-4.08h-18.73c-39.71,0-76.51-52.12-102.79-76.18-6.07-5.56-12.51-11-20.71-13l-1.77-48.16c32.62,11.65,56.82,38.52,84.97,57.78,19.02,13.01,41.42,24.72,64.54,27.86,9.69,1.31,18.39.67,28.07.14l10.53-30c-23.34,10.04-49,4.51-70.47-7.36-7.43-4.11-20.14-12.19-26.69-17.38-.66-.53-1.53.03-1.05-1.89,22.11-7.56,40.08-25.04,61.05-35.11,6.04-2.9,22.25-9.02,28.44-9.02h18.73Z"/>
  </g>

  <!-- FISIOTERAPIA, ladeado por filetes -->
  <line x1="60" y1="246" x2="132" y2="246" stroke="#cd9758" stroke-width="1.6"/>
  <line x1="288" y1="246" x2="360" y2="246" stroke="#cd9758" stroke-width="1.6"/>
  <text x="210" y="251" text-anchor="middle"
        font-family="Inter, system-ui, sans-serif" font-size="15" font-weight="500"
        letter-spacing="4.2" fill="#af7a3a">FISIOTERAPIA</text>

  <!-- Wordmark -->
  <text x="210" y="330" text-anchor="middle"
        font-family="'Playfair Display', Georgia, serif" font-size="76" font-weight="500"
        letter-spacing="4" fill="#324224">ATRIUM</text>
  <text x="210" y="404" text-anchor="middle"
        font-family="'Playfair Display', Georgia, serif" font-size="76" font-weight="500"
        letter-spacing="4" fill="#324224">REHAB</text>

  <!-- Filete + descritor -->
  <line x1="140" y1="436" x2="280" y2="436" stroke="#cd9758" stroke-width="1.6"/>
  <text x="210" y="462" text-anchor="middle"
        font-family="Inter, system-ui, sans-serif" font-size="13" font-weight="500"
        letter-spacing="3" fill="#af7a3a">CARDIOPULMONAR</text>
  <text x="210" y="482" text-anchor="middle"
        font-family="Inter, system-ui, sans-serif" font-size="13" font-weight="500"
        letter-spacing="3" fill="#af7a3a">&amp; LONGEVIDADE</text>
</svg>
